<svg width="414" height="414" viewBox="0 0 414 414" fill="none" xmlns="http://www.w3.org/2000/svg">
<g clip-path="url(#clip0)">
<rect width="414" height="414" fill="#1C1E20"/>
<mask id="mask0" mask-type="alpha" maskUnits="userSpaceOnUse" x="37" y="53" width="339" height="273">
<path d="M72.32 116.56C62.12 116.56 53.7333 113.613 47.16 107.72C40.8133 101.6 37.64 94.12 37.64 85.28C37.64 76.2133 40.8133 68.7333 47.16 62.84C53.7333 56.72 62.12 53.66 72.32 53.66C82.2933 53.66 90.4533 56.72 96.8 62.84C103.373 68.7333 106.66 76.2133 106.66 85.28C106.66 94.12 103.373 101.6 96.8 107.72C90.4533 113.613 82.2933 116.56 72.32 116.56ZM101.22 136.28V326H43.08V136.28H101.22ZM197.753 278.06H280.033V326H132.813V279.76L211.693 184.22H133.493V136.28H278.333V182.52L197.753 278.06ZM341.265 116.56C331.065 116.56 322.679 113.613 316.105 107.72C309.759 101.6 306.585 94.12 306.585 85.28C306.585 76.2133 309.759 68.7333 316.105 62.84C322.679 56.72 331.065 53.66 341.265 53.66C351.239 53.66 359.399 56.72 365.745 62.84C372.319 68.7333 375.605 76.2133 375.605 85.28C375.605 94.12 372.319 101.6 365.745 107.72C359.399 113.613 351.239 116.56 341.265 116.56ZM370.165 136.28V326H312.025V136.28H370.165Z" fill="white"/>
</mask>
<g mask="url(#mask0)">
<rect x="40" y="133" width="332" height="197" fill="white"/>
</g>
<rect x="44" y="49" width="326" height="58" fill="#F9545E"/>
</g>
<defs>
<clipPath id="clip0">
<rect width="414" height="414" fill="white"/>
</clipPath>
</defs>
</svg>
