<svg width="521" height="414" viewBox="0 0 521 414" fill="none" xmlns="http://www.w3.org/2000/svg">
<mask id="mask0" mask-type="alpha" maskUnits="userSpaceOnUse" x="17" y="68" width="491" height="308">
<path d="M67.104 165.08C72.864 156.248 80.064 149.336 88.704 144.344C97.344 139.16 106.944 136.568 117.504 136.568V188.696H103.968C91.68 188.696 82.464 191.384 76.32 196.76C70.176 201.944 67.104 211.16 67.104 224.408V299H17.856V138.296H67.104V165.08ZM165.812 121.592C157.172 121.592 150.068 119.096 144.5 114.104C139.124 108.92 136.436 102.584 136.436 95.096C136.436 87.416 139.124 81.08 144.5 76.088C150.068 70.904 157.172 68.312 165.812 68.312C174.26 68.312 181.172 70.904 186.548 76.088C192.116 81.08 194.9 87.416 194.9 95.096C194.9 102.584 192.116 108.92 186.548 114.104C181.172 119.096 174.26 121.592 165.812 121.592ZM190.292 138.296V299H141.044V138.296H190.292ZM272.061 258.392H341.757V299H217.053V259.832L283.869 178.904H217.629V138.296H340.317V177.464L272.061 258.392ZM393.336 121.592C384.696 121.592 377.592 119.096 372.024 114.104C366.648 108.92 363.96 102.584 363.96 95.096C363.96 87.416 366.648 81.08 372.024 76.088C377.592 70.904 384.696 68.312 393.336 68.312C401.784 68.312 408.696 70.904 414.072 76.088C419.64 81.08 422.424 87.416 422.424 95.096C422.424 102.584 419.64 108.92 414.072 114.104C408.696 119.096 401.784 121.592 393.336 121.592ZM418.104 319.736C418.104 339.512 413.112 353.72 403.128 362.36C393.144 371.192 379.224 375.608 361.368 375.608H342.072V333.848H353.88C359.256 333.848 363.096 332.792 365.4 330.68C367.704 328.568 368.856 325.112 368.856 320.312V138.296H418.104V319.736ZM478.28 121.592C469.64 121.592 462.536 119.096 456.968 114.104C451.592 108.92 448.904 102.584 448.904 95.096C448.904 87.416 451.592 81.08 456.968 76.088C462.536 70.904 469.64 68.312 478.28 68.312C486.728 68.312 493.64 70.904 499.016 76.088C504.584 81.08 507.368 87.416 507.368 95.096C507.368 102.584 504.584 108.92 499.016 114.104C493.64 119.096 486.728 121.592 478.28 121.592ZM502.76 138.296V299H453.512V138.296H502.76Z" fill="#1C1E20"/>
</mask>
<g mask="url(#mask0)">
<path d="M67.104 165.08C72.864 156.248 80.064 149.336 88.704 144.344C97.344 139.16 106.944 136.568 117.504 136.568V188.696H103.968C91.68 188.696 82.464 191.384 76.32 196.76C70.176 201.944 67.104 211.16 67.104 224.408V299H17.856V138.296H67.104V165.08ZM165.812 121.592C157.172 121.592 150.068 119.096 144.5 114.104C139.124 108.92 136.436 102.584 136.436 95.096C136.436 87.416 139.124 81.08 144.5 76.088C150.068 70.904 157.172 68.312 165.812 68.312C174.26 68.312 181.172 70.904 186.548 76.088C192.116 81.08 194.9 87.416 194.9 95.096C194.9 102.584 192.116 108.92 186.548 114.104C181.172 119.096 174.26 121.592 165.812 121.592ZM190.292 138.296V299H141.044V138.296H190.292ZM272.061 258.392H341.757V299H217.053V259.832L283.869 178.904H217.629V138.296H340.317V177.464L272.061 258.392ZM393.336 121.592C384.696 121.592 377.592 119.096 372.024 114.104C366.648 108.92 363.96 102.584 363.96 95.096C363.96 87.416 366.648 81.08 372.024 76.088C377.592 70.904 384.696 68.312 393.336 68.312C401.784 68.312 408.696 70.904 414.072 76.088C419.64 81.08 422.424 87.416 422.424 95.096C422.424 102.584 419.64 108.92 414.072 114.104C408.696 119.096 401.784 121.592 393.336 121.592ZM418.104 319.736C418.104 339.512 413.112 353.72 403.128 362.36C393.144 371.192 379.224 375.608 361.368 375.608H342.072V333.848H353.88C359.256 333.848 363.096 332.792 365.4 330.68C367.704 328.568 368.856 325.112 368.856 320.312V138.296H418.104V319.736ZM478.28 121.592C469.64 121.592 462.536 119.096 456.968 114.104C451.592 108.92 448.904 102.584 448.904 95.096C448.904 87.416 451.592 81.08 456.968 76.088C462.536 70.904 469.64 68.312 478.28 68.312C486.728 68.312 493.64 70.904 499.016 76.088C504.584 81.08 507.368 87.416 507.368 95.096C507.368 102.584 504.584 108.92 499.016 114.104C493.64 119.096 486.728 121.592 478.28 121.592ZM502.76 138.296V299H453.512V138.296H502.76Z" fill="#1C1E20"/>
<path d="M131.5 127.5V63H517V127.5H131.5Z" fill="#F9545E"/>
</g>
</svg>
