<svg width="489" height="320" viewBox="0 0 489 320" fill="none" xmlns="http://www.w3.org/2000/svg">
<mask id="mask0" mask-type="alpha" maskUnits="userSpaceOnUse" x="0" y="78" width="489" height="242">
<rect y="78" width="489" height="242" fill="#C4C4C4"/>
</mask>
<g mask="url(#mask0)">
<path d="M51.104 107.08C56.864 98.248 64.064 91.336 72.704 86.344C81.344 81.16 90.944 78.568 101.504 78.568V130.696H87.968C75.68 130.696 66.464 133.384 60.32 138.76C54.176 143.944 51.104 153.16 51.104 166.408V241H1.856V80.296H51.104V107.08ZM149.812 63.592C141.172 63.592 134.068 61.096 128.5 56.104C123.124 50.92 120.436 44.584 120.436 37.096C120.436 29.416 123.124 23.08 128.5 18.088C134.068 12.904 141.172 10.312 149.812 10.312C158.26 10.312 165.172 12.904 170.548 18.088C176.116 23.08 178.9 29.416 178.9 37.096C178.9 44.584 176.116 50.92 170.548 56.104C165.172 61.096 158.26 63.592 149.812 63.592ZM174.292 80.296V241H125.044V80.296H174.292ZM256.061 200.392H325.757V241H201.053V201.832L267.869 120.904H201.629V80.296H324.317V119.464L256.061 200.392ZM377.336 63.592C368.696 63.592 361.592 61.096 356.024 56.104C350.648 50.92 347.96 44.584 347.96 37.096C347.96 29.416 350.648 23.08 356.024 18.088C361.592 12.904 368.696 10.312 377.336 10.312C385.784 10.312 392.696 12.904 398.072 18.088C403.64 23.08 406.424 29.416 406.424 37.096C406.424 44.584 403.64 50.92 398.072 56.104C392.696 61.096 385.784 63.592 377.336 63.592ZM402.104 261.736C402.104 281.512 397.112 295.72 387.128 304.36C377.144 313.192 363.224 317.608 345.368 317.608H326.072V275.848H337.88C343.256 275.848 347.096 274.792 349.4 272.68C351.704 270.568 352.856 267.112 352.856 262.312V80.296H402.104V261.736ZM462.28 63.592C453.64 63.592 446.536 61.096 440.968 56.104C435.592 50.92 432.904 44.584 432.904 37.096C432.904 29.416 435.592 23.08 440.968 18.088C446.536 12.904 453.64 10.312 462.28 10.312C470.728 10.312 477.64 12.904 483.016 18.088C488.584 23.08 491.368 29.416 491.368 37.096C491.368 44.584 488.584 50.92 483.016 56.104C477.64 61.096 470.728 63.592 462.28 63.592ZM486.76 80.296V241H437.512V80.296H486.76Z" fill="white"/>
</g>
<rect x="125" width="362" height="49" fill="#F9545E"/>
</svg>
